/* XPM */
static char *collectible[] = {
/* columns rows colors chars-per-pixel */
"64 64 14 1 ",
"  c gray32",
". c #836262",
"X c #BD7B7B",
"o c #6A9C6A",
"O c #73BD6A",
"+ c #DE8B8B",
"@ c #E69C9C",
"# c #F6ACAC",
"$ c #9CDE9C",
"% c #F6C5C5",
"& c #E0E8F8",
"* c #E8F0F8",
"= c #F0F8F8",
"- c #F8F8F8",
/* pixels */
"--------========--------============****&&&&****====------------",
"--------========--------============****&&&&****====------------",
"--------========--------============****&&&&****====------------",
"--------========--------============****&&&&****====------------",
"--------------------------------------------------------========",
"--------------------------------------------------------========",
"--------------------------------------------------------========",
"--------------------------------------------------------========",
"====------------================--------------------============",
"====------------================--------------------============",
"====------------================--------------------============",
"====------------================--------------------============",
"====----------------------------------------------------========",
"====----------------------------------------------------========",
"====----------------------------------------------------========",
"====----------------------------------------------------========",
"--------------------========--------------------========--------",
"--------------------==   ===--------------------========--------",
"--------------------       =-------            -========--------",
"--------------------  oo    ---                 ========--------",
"------------****===  o$Ooo         .++#######.  ================",
"------------****===  O$oooo    .+######%%%%##+  ================",
"------------****==  o$Oooo  .++#######%%%%%%##   ===============",
"------------****==  O$ooo. .+##%%%%%###%%%%###.  ===============",
"----====********==  $Ooo...###%%%%%%%#########X  ---------------",
"----====********=   $Ooo..+###%%%%%%%#########+  ---------------",
"----====********=  o$oo..X####%%%%%%##########+  ---------------",
"----====********=  O$oo..+#####%%%%#####%%%###+.  --------------",
"====------------=  O$oo..##############%%%%%##+.  **&&&&--------",
"====------------=  O$oo..##############%%%%%%++X  **&&&&--------",
"====------------=  OOoo..#######%%%####%%%%%%@++  **&&&&--------",
"====------------=  oOoo..######%%%%%###%%%%%@@++  **&&&&--------",
"-----------------  oOoo..+#####%%%%%####%%%@@@++  --------------",
"-----------------   Oooo..######%%%%######@@@@++  --------------",
"------------------  oOoo..+##############+@@@+++  --------------",
"------------------   Oooo..#############++++++++  --------------",
"-------------------  oOoo..+##########+++++++++X  ======--------",
"-------------------   oOoo..++####+++++++++++++.  ======--------",
"--------------------   oooo..++++++++++++++++++  =======--------",
"---------------------    ooo..X+++++++++++++++X  =======--------",
"----========********===      ...X++++++++++++X.  ---------------",
"----========********=====      ...X++++++++X..   ---------------",
"----========********=========  o.............     --------------",
"----========********=========  oooo........ooOOo    ------------",
"========********&&&&****====-  oooooooooooooOO$$Oo   -----------",
"========********&&&&****====-   ooooooooooOOO$$$$$O  -----------",
"========********&&&&****====--  oOOooooOOOO$$$$$$$O   ----------",
"========********&&&&****====--    oOOOOOO$$$$$$$$O    ----------",
"--------------------====-------      oOOOOOOOOo      -----------",
"--------------------====--------=                  =------------",
"--------------------====--------====            ====------------",
"--------------------====--------========********====------------",
"--------========--------============****&&&&****====------------",
"--------========--------============****&&&&****====------------",
"--------========--------============****&&&&****====------------",
"--------========--------============****&&&&****====------------",
"====------------================--------------------============",
"====------------================--------------------============",
"====------------================--------------------============",
"====------------================--------------------============",
"============----------------------------------------------------",
"============----------------------------------------------------",
"============----------------------------------------------------",
"============----------------------------------------------------"
};