/* XPM */
static char *result[] = {
/* columns rows colors chars-per-pixel */
"64 64 17 1 ",
"  c #2A3B4C",
". c #35516B",
"X c #40688A",
"o c #4B7EA9",
"O c #5684B8",
"+ c #6A9CCF",
"@ c #7EB4E6",
"# c #9AC6ED",
"$ c #B6D8F4",
"% c #D2EAFC",
"& c #E0E8F8",
"* c #E6F3FA",
"= c #E8F0F8",
"- c #F0F8F8",
"; c #F2F8FC",
": c #F8F8F8",
"> c white",
/* pixels */
"::::::::--------::::::::------------====&&&&====----::::::::::::",
"::::::::--------::::::::------------====&&&&====----::::::::::::",
"::::::::--------::::::::------------====&&&&====----::::::::::::",
"::::::::--------::::::::------------====&&&&====----::::::::::::",
"::::::::::::::::::::::::::::::::::::::::::::::::::::::::--------",
"::::::::::::::::::::::::::::::::::::::::::::::::::::::::--------",
"::::::::::::::::::::::::::::::::::::::::::::::::::::::::--------",
"::::::::::::::::::::::::::           :::::::::::::::::::--------",
"----::::::::::::-------                 ::::::::::::------------",
"----::::::::::::----      ...........      :::::::::------------",
"----::::::::::::---    .................    ::::::::------------",
"----::::::::::::-   ......XXXXXXXXXXX......   ::::::------------",
"----::::::::::::   ....XXXXXXXXXXXXXXXXX....   :::::::::--------",
"----::::::::::   ...XXXXXXoooooooooooXXXXXX...   :::::::--------",
"----:::::::::   ...XXXXoooooooooooooooooXXXX...   ::::::--------",
"----::::::::  ...XXXooooooOOOOOOOOOOOooooooXXX...  :::::--------",
":::::::::::   ..XXXooooOOOOOOOOOOOOOOOOOooooXXX...  ----::::::::",
":::::::::::  ..XXoooOOOOOO+++++++++++OOOOOOoooXX..  ----::::::::",
"::::::::::  ..XXoooOOOO+++++++++++++++++OOOOoooXX..  ---::::::::",
":::::::::  ..XXooOOO++++++@@@@@@@@@@@++++++OOOooXX..  --::::::::",
":::::::::  ..XXooOO++++@@@@@@@@@@@@@@@@@++++OOooXX..  ----------",
"::::::::  ..XXooOO++@@@@@@###########@@@@@@++OOooXX..  ---------",
"::::::::  ..XXooOO++@@@#################@@@++OOooXX..  ---------",
":::::::  ..XXooOO++@@#####$$$$$$$$$$$#####@@++OOooXX..  --------",
"::::---  ..XXooOO++@@##$$$$$$$$$$$$$$$$$##@@++OOooXX..  ::::::::",
"::::---  ..XXooOO++@@##$$$%%%%%%%%%%%$$$##@@++OOooXX..  ::::::::",
"::::---  ..XXooOO++@@##$$%%%%%%%%%%%%%$$##@@++OOooXX..  ::::::::",
"::::--  ..XXooOO++@@##$$%%%*********%%%$$##@@++OOooXX..  :::::::",
"----::  ..XXooOO++@@##$$%%**;;;;;;;**%%$$##@@++OOooXX..  :::::::",
"----::  ..XXooOO++@@##$$%%*;;>>>>>;;*%%$$##@@++OOooXX..  :::::::",
"----::  ..XXooOO++@@##$$%%*;>>>>>>>;*%%$$##@@++OOooXX..  :::::::",
"----::  ..XXooOO++@@##$$%%*;>>>>>>>;*%%$$##@@++OOooXX..  :::::::",
"::::::  ..XXooOO++@@##$$%%*;>>>>>>>;*%%$$##@@++OOooXX..  :::::::",
"::::::  ..XXooOO++@@##$$%%*;;>>>>>;;*%%$$##@@++OOooXX..  :::::::",
"::::::  ..XXooOO++@@##$$%%**;;;;;;;**%%$$##@@++OOooXX..  :::::::",
"::::::  ..XXooOO++@@##$$%%%*********%%%$$##@@++OOooXX..  :::::::",
":::::::  ..XXooOO++@@##$$%%%%%%%%%%%%%$$##@@++OOooXX..  ::::::::",
":::::::  ..XXooOO++@@##$$$%%%%%%%%%%%$$$##@@++OOooXX..  ::::::::",
":::::::  ..XXooOO++@@##$$$$$$$$$$$$$$$$$##@@++OOooXX..  ::::::::",
":::::::  ..XXooOO++@@#####$$$$$$$$$$$#####@@++OOooXX..  ::::::::",
"::::----  ..XXooOO++@@@#################@@@++OOooXX..  :::::::::",
"::::----  ..XXooOO++@@@@@@###########@@@@@@++OOooXX..  :::::::::",
"::::-----  ..XXooOO++++@@@@@@@@@@@@@@@@@++++OOooXX..  ::::::::::",
"::::-----  ..XXooOOO++++++@@@@@@@@@@@++++++OOOooXX..  ::::::::::",
"--------==  ..XXoooOOOO+++++++++++++++++OOOOoooXX..  :::::::::::",
"--------===  ..XXoooOOOOOO+++++++++++OOOOOOoooXX..  ::::::::::::",
"--------===  ...XXXooooOOOOOOOOOOOOOOOOOooooXXX...  ::::::::::::",
"--------====  ...XXXooooooOOOOOOOOOOOooooooXXX...  :::::::::::::",
":::::::::::::   ...XXXXoooooooooooooooooXXXX...   --::::::::::::",
"::::::::::::::   ...XXXXXXoooooooooooXXXXXX...   ---::::::::::::",
"::::::::::::::::   ....XXXXXXXXXXXXXXXXX....   =----::::::::::::",
":::::::::::::::::   ......XXXXXXXXXXX......   ==----::::::::::::",
"::::::::--------:::    .................    ====----::::::::::::",
"::::::::--------::::      ...........      &====----::::::::::::",
"::::::::--------:::::::                 &&&&====----::::::::::::",
"::::::::--------::::::::--           ===&&&&====----::::::::::::",
"----::::::::::::----------------::::::::::::::::::::------------",
"----::::::::::::----------------::::::::::::::::::::------------",
"----::::::::::::----------------::::::::::::::::::::------------",
"----::::::::::::----------------::::::::::::::::::::------------",
"------------::::::::::::::::::::::::::::::::::::::::::::::::::::",
"------------::::::::::::::::::::::::::::::::::::::::::::::::::::",
"------------::::::::::::::::::::::::::::::::::::::::::::::::::::",
"------------::::::::::::::::::::::::::::::::::::::::::::::::::::"
};