/* XPM */
static char *floor[] = {
/* columns rows colors chars-per-pixel */
"64 64 4 1 ",
"  c #E0E8F8",
". c #E8F0F8",
"X c #F0F8F8",
"o c #F8F8F8",
/* pixels */
"ooooooooXXXXXXXXooooooooXXXXXXXXXXXX....    ....XXXXoooooooooooo",
"ooooooooXXXXXXXXooooooooXXXXXXXXXXXX....    ....XXXXoooooooooooo",
"ooooooooXXXXXXXXooooooooXXXXXXXXXXXX....    ....XXXXoooooooooooo",
"ooooooooXXXXXXXXooooooooXXXXXXXXXXXX....    ....XXXXoooooooooooo",
"ooooooooooooooooooooooooooooooooooooooooooooooooooooooooXXXXXXXX",
"ooooooooooooooooooooooooooooooooooooooooooooooooooooooooXXXXXXXX",
"ooooooooooooooooooooooooooooooooooooooooooooooooooooooooXXXXXXXX",
"ooooooooooooooooooooooooooooooooooooooooooooooooooooooooXXXXXXXX",
"XXXXooooooooooooXXXXXXXXXXXXXXXXooooooooooooooooooooXXXXXXXXXXXX",
"XXXXooooooooooooXXXXXXXXXXXXXXXXooooooooooooooooooooXXXXXXXXXXXX",
"XXXXooooooooooooXXXXXXXXXXXXXXXXooooooooooooooooooooXXXXXXXXXXXX",
"XXXXooooooooooooXXXXXXXXXXXXXXXXooooooooooooooooooooXXXXXXXXXXXX",
"XXXXooooooooooooooooooooooooooooooooooooooooooooooooooooXXXXXXXX",
"XXXXooooooooooooooooooooooooooooooooooooooooooooooooooooXXXXXXXX",
"XXXXooooooooooooooooooooooooooooooooooooooooooooooooooooXXXXXXXX",
"XXXXooooooooooooooooooooooooooooooooooooooooooooooooooooXXXXXXXX",
"ooooooooooooooooooooXXXXXXXXooooooooooooooooooooXXXXXXXXoooooooo",
"ooooooooooooooooooooXXXXXXXXooooooooooooooooooooXXXXXXXXoooooooo",
"ooooooooooooooooooooXXXXXXXXooooooooooooooooooooXXXXXXXXoooooooo",
"ooooooooooooooooooooXXXXXXXXooooooooooooooooooooXXXXXXXXoooooooo",
"oooooooooooo....XXXXXXXXXXXXXXXXooooooooXXXXXXXXXXXXXXXXXXXXXXXX",
"oooooooooooo....XXXXXXXXXXXXXXXXooooooooXXXXXXXXXXXXXXXXXXXXXXXX",
"oooooooooooo....XXXXXXXXXXXXXXXXooooooooXXXXXXXXXXXXXXXXXXXXXXXX",
"oooooooooooo....XXXXXXXXXXXXXXXXooooooooXXXXXXXXXXXXXXXXXXXXXXXX",
"ooooXXXX........XXXXXXXXXXXXXXXXXXXXXXXXXXXXXXXXoooooooooooooooo",
"ooooXXXX........XXXXXXXXXXXXXXXXXXXXXXXXXXXXXXXXoooooooooooooooo",
"ooooXXXX........XXXXXXXXXXXXXXXXXXXXXXXXXXXXXXXXoooooooooooooooo",
"ooooXXXX........XXXXXXXXXXXXXXXXXXXXXXXXXXXXXXXXoooooooooooooooo",
"XXXXooooooooooooXXXXoooooooooooooooooooooooooooo....    oooooooo",
"XXXXooooooooooooXXXXoooooooooooooooooooooooooooo....    oooooooo",
"XXXXooooooooooooXXXXoooooooooooooooooooooooooooo....    oooooooo",
"XXXXooooooooooooXXXXoooooooooooooooooooooooooooo....    oooooooo",
"ooooooooooooooooooooooooooooooooooooooooXXXXXXXXoooooooooooooooo",
"ooooooooooooooooooooooooooooooooooooooooXXXXXXXXoooooooooooooooo",
"ooooooooooooooooooooooooooooooooooooooooXXXXXXXXoooooooooooooooo",
"ooooooooooooooooooooooooooooooooooooooooXXXXXXXXoooooooooooooooo",
"ooooooooooooooooooooooooooooooooooooooooooooXXXXXXXXXXXXoooooooo",
"ooooooooooooooooooooooooooooooooooooooooooooXXXXXXXXXXXXoooooooo",
"ooooooooooooooooooooooooooooooooooooooooooooXXXXXXXXXXXXoooooooo",
"ooooooooooooooooooooooooooooooooooooooooooooXXXXXXXXXXXXoooooooo",
"ooooXXXXXXXX........XXXXXXXXXXXXXXXXXXXXXXXXoooooooooooooooooooo",
"ooooXXXXXXXX........XXXXXXXXXXXXXXXXXXXXXXXXoooooooooooooooooooo",
"ooooXXXXXXXX........XXXXXXXXXXXXXXXXXXXXXXXXoooooooooooooooooooo",
"ooooXXXXXXXX........XXXXXXXXXXXXXXXXXXXXXXXXoooooooooooooooooooo",
"XXXXXXXX........    ....XXXXooooXXXXXXXXoooooooooooooooooooooooo",
"XXXXXXXX........    ....XXXXooooXXXXXXXXoooooooooooooooooooooooo",
"XXXXXXXX........    ....XXXXooooXXXXXXXXoooooooooooooooooooooooo",
"XXXXXXXX........    ....XXXXooooXXXXXXXXoooooooooooooooooooooooo",
"ooooooooooooooooooooXXXXooooooooXXXXXXXX........XXXXoooooooooooo",
"ooooooooooooooooooooXXXXooooooooXXXXXXXX........XXXXoooooooooooo",
"ooooooooooooooooooooXXXXooooooooXXXXXXXX........XXXXoooooooooooo",
"ooooooooooooooooooooXXXXooooooooXXXXXXXX........XXXXoooooooooooo",
"ooooooooXXXXXXXXooooooooXXXXXXXXXXXX....    ....XXXXoooooooooooo",
"ooooooooXXXXXXXXooooooooXXXXXXXXXXXX....    ....XXXXoooooooooooo",
"ooooooooXXXXXXXXooooooooXXXXXXXXXXXX....    ....XXXXoooooooooooo",
"ooooooooXXXXXXXXooooooooXXXXXXXXXXXX....    ....XXXXoooooooooooo",
"XXXXooooooooooooXXXXXXXXXXXXXXXXooooooooooooooooooooXXXXXXXXXXXX",
"XXXXooooooooooooXXXXXXXXXXXXXXXXooooooooooooooooooooXXXXXXXXXXXX",
"XXXXooooooooooooXXXXXXXXXXXXXXXXooooooooooooooooooooXXXXXXXXXXXX",
"XXXXooooooooooooXXXXXXXXXXXXXXXXooooooooooooooooooooXXXXXXXXXXXX",
"XXXXXXXXXXXXoooooooooooooooooooooooooooooooooooooooooooooooooooo",
"XXXXXXXXXXXXoooooooooooooooooooooooooooooooooooooooooooooooooooo",
"XXXXXXXXXXXXoooooooooooooooooooooooooooooooooooooooooooooooooooo",
"XXXXXXXXXXXXoooooooooooooooooooooooooooooooooooooooooooooooooooo"
};