/* XPM */
static char *player[] = {
/* columns rows colors chars-per-pixel */
"64 64 19 1 ",
"  c black",
". c #202028",
"X c #584038",
"o c #303040",
"O c #404050",
"+ c #606078",
"@ c #906838",
"# c #A84840",
"$ c #C05040",
"% c #F06858",
"& c #C89838",
"* c #F8D858",
"= c #2880C0",
"- c #A8A8B8",
"; c #E0E8F8",
": c #E8E8F8",
"> c #E8F0F8",
", c #F0F8F8",
"< c #F8F8F8",
/* pixels */
"<<<<<<<<,,,,,,,,<<<<<<<<,,,,,,,,,,,,>>>>;;;;>>>>,,,,<<<<<<<<<<<<",
"<<<<<<<<,,,,,,,,<<<<<<<<,,,,,,,,,,,,>>>>;;;;>>>>,,,,<<<<<<<<<<<<",
"<<<<<<<<,,,,,,,,<<<<<<<<,,,,,,,,,,,,>>>>;;;;>>>>,,,,<<<<<<<<<<<<",
"<<<<<<<<,,,,,,,,<<<<<<<<,,,,,,,,,,,,>>>>;;;;>>>>,,,,<<<<<<<<<<<<",
"<<<<<<<<<<<<<<<<<<<<<<<<<<<<<<<<<<<<<<<<<<<<<<<<<<<<<<<<,,,,,,,,",
"<<<<<<<<<<<<<<<<<<<<<<<<<<<<<<<<<<<<<<<<<<<<<<<<<<<<<<<<,,,,,,,,",
"<<<<<<<<<<<<<<<<<<<<<<<<<<<<<<<<<<<<<<<<<<<<<<<<<<<<<<<<,,,,,,,,",
"<<<<<<<<<<<<<<<<<<<<<<<<<<<<<<<<<<<<<<<<<<<<<<<<<<<<<<<<,,,,,,,,",
",,,,<<<<<<<<<<<<,,,,,,,,,,,,,,,,<<<<<<<<<<<<<<<<<<<<,,,,,,,,,,,,",
",,,,<<<<<<<<<<<<,,,,,,,,,,,,,,,,<<<<<<<<<<<<<<<<<<<<,,,,,,,,,,,,",
",,,,<<<<<<<<<<<<,,,,,,,,,,,,,,,,<<<<<<<<<<<<<<<<<<<<,,,,,,,,,,,,",
",,,,<<<<<<<<<<<<,,,,,,,,,,,,,,,,<<<<<<<<<<<<<<<<<<<<,,,,,,,,,,,,",
",,,,<<<<<<<<<<<<<<<<<<<<<<<<<<<<<<<<<<<<<<<<<<<<<<<<<<<<,,,,,,,,",
",,,,<<<<<<<<<<<<<<<<<<<<<<<<<<<<<<<<<<<<<<<<<<<<<<<<<<<<,,,,,,,,",
",,,,<<<<<<<<<<<<<<<<<<<<<<<<<<<<<<<<<<<<<<<<<<<<<<<<<<<<,,,,,,,,",
",,,,<<<<<<<<<<<<<<<<<<<<<<<<<<<<<<<<<<<<<<<<<<<<<<<<<<<<,,,,,,,,",
"<<<<<<<<<<<<<<<<<<<<,,,,,,,,<<<<<<<<<<<<<<<<<<<<,,,,,,,,<<<<<<<<",
"<<<<<<<<<<<<<<<<<<<<,,,,,,,,<<<<<<<<<<<<<<<<<<<<,,,,,,,,<<<<<<<<",
"<<<<<<<<<<<<<<<<<<<<,,,,,,,,<<<<<<<<<<<<<<<<<<<<,,,,,,,,<<<<<<<<",
"<<<<<<<<<<<<<<<<<<<<,,,,,,,,<<<<<<<<<<<<<<<<<<<<,,,,,,,,<<<<<<<<",
"<<<<<<<<<<<<>>>>,,,,,,,,,,,,,,,,<<<<<<<<,,,,,,,,,,,,,,,,,,,,,,,,",
"<<<<<<<<<<<<>>>>,,,,,,,,,,,,,,,,<<<<<<<<,,,,,,,,,,,,,,,,,,,,,,,,",
"<<<<<<<<<<<<>>>>,,,,,,,,,,,,,,,,<<<<<<<<,,,,,,,,,,,,,,,,,,,,,,,,",
"<<<<<<<<<<<<>>>>,,,,,,,,,,,,,,,,<<<<<<<<,,,,,,,,,,,,,,,,,,,,,,,,",
"<<<<,,,,>>>>>>>>,,,,,,,,,,,,,,,,,,,,,,,,,,,,,,,,<<<<<<<<<<<<<<<<",
"<<<<,,,,>>>>>>>>,,,,,,,,,,,,,,,,,,,,,,,,,,,,,,,,<<<<<<<<<<<<<<<<",
"<<<<,,,,>>>>>>>>,,,,,,,,,,,,,,,,,,,,,,,,,,,,,,,,<<<<<<<<<<<<<<<<",
"<<<<,,,,>>>>>>>>,,,,,,,,,,,,,,,,,,,,,,,,,,,,,,,,<<<<<<<<<<<<<<<<",
",,,,<<<<<<<<<<<<,,,,<<<<<<<<XXXXXX<<<<<<<<<<<<<<>>>>;;;;<<<<<<<<",
",,,,<<<<<<<<<<<<,,,,<<<<<<<<XXXXXX<<<<<<<<<<<<<<>>>>;;;;<<<<<<<<",
",,,,<<<<<<<<<<<<,,,,<<<<<<XX******XX<<<<<<<<<<<<>>>>;;;;<<<<<<<<",
",,,,<<<<<<<<<<<<,,,,<<<<<<XX******XX<<<<<<<<<<<<>>>>;;;;<<<<<<<<",
"<<<<<<<<<<<<<<<<<<<<<<<<XX&&******&&XX<<,,,,,,,,<<<<<<<<<<<<<<<<",
"<<<<<<<<<<<<<<<<<<<<<<<<XX&&******&&XX<<,,,,,,,,<<<<<<<<<<<<<<<<",
"<<<<<<<<<<<<<<<<<<<<<<<<XX**********XX<<,,,,,,,,<<<<<<<<<<<<<<<<",
"<<<<<<<<<<<<<<<<<<<<<<<<XX**********XX<<,,,,,,,,<<<<<<<<<<<<<<<<",
"<<<<<<<<<<<<<<<<<<<<<<  ******&&******  <<<<,,,,,,,,,,,,<<<<<<<<",
"<<<<<<<<<<<<<<<<<<<<<<  ******&&******  <<<<,,,,,,,,,,,,<<<<<<<<",
"<<<<<<<<<<<<<<<<<<<<<<  ****%%%%%%****  <<<<,,,,,,,,,,,,<<<<<<<<",
"<<<<<<<<<<<<<<<<<<<<<<  ****%%%%%%****  <<<<,,,,,,,,,,,,<<<<<<<<",
"<<<<,,,,,,,,>>>>>>>>  ****%%%%##%%%%****  ,,<<<<<<<<<<<<<<<<<<<<",
"<<<<,,,,,,,,>>>>>>>>  ****%%%%##%%%%****  ,,<<<<<<<<<<<<<<<<<<<<",
"<<<<,,,,,,,,>>>>>>>>  **%%%%oooooo%%%%**  ,,<<<<<<<<<<<<<<<<<<<<",
"<<<<,,,,,,,,>>>>>>>>  **%%%%oooooo%%%%**  ,,<<<<<<<<<<<<<<<<<<<<",
",,,,,,,,>>>>>>>>;;  &&&&%%ooooOOoooo%%&&&&  <<<<<<<<<<<<<<<<<<<<",
",,,,,,,,>>>>>>>>;;  &&&&%%ooooOOoooo%%&&&&  <<<<<<<<<<<<<<<<<<<<",
",,,,,,,,>>>>>>>>;;  &&$$$$ooOOOOOOoo$$$$&&  <<<<<<<<<<<<<<<<<<<<",
",,,,,,,,>>>>>>>>;;  &&$$$$ooOOOOOOoo$$$$&&  <<<<<<<<<<<<<<<<<<<<",
"<<<<<<<<<<<<<<<<  &&&&$$oo==++--++==oo$$&&&&  >>,,,,<<<<<<<<<<<<",
"<<<<<<<<<<<<<<<<  &&&&$$oo==++--++==oo$$&&&&  >>,,,,<<<<<<<<<<<<",
"<<<<<<<<<<<<<<<<  &&@@$$$$oo::--::oo$$$$@@&&  >>,,,,<<<<<<<<<<<<",
"<<<<<<<<<<<<<<<<  &&@@$$$$oo::--::oo$$$$@@&&  >>,,,,<<<<<<<<<<<<",
"<<<<<<<<,,,,,,,,<<  @@&&  ++OO..++OO  &&@@  >>>>,,,,<<<<<<<<<<<<",
"<<<<<<<<,,,,,,,,<<  @@&&  ++OO..++OO  &&@@  >>>>,,,,<<<<<<<<<<<<",
"<<<<<<<<,,,,,,,,<<<<      OOOO..OOOO      ;;>>>>,,,,<<<<<<<<<<<<",
"<<<<<<<<,,,,,,,,<<<<      OOOO..OOOO      ;;>>>>,,,,<<<<<<<<<<<<",
",,,,<<<<<<<<<<<<,,,,,,..      ,,    oo..<<<<<<<<<<<<,,,,,,,,,,,,",
",,,,<<<<<<<<<<<<,,,,,,..      ,,    oo..<<<<<<<<<<<<,,,,,,,,,,,,",
",,,,<<<<<<<<<<<<,,,,,,,,,,,,,,,,<<    <<<<<<<<<<<<<<,,,,,,,,,,,,",
",,,,<<<<<<<<<<<<,,,,,,,,,,,,,,,,<<    <<<<<<<<<<<<<<,,,,,,,,,,,,",
",,,,,,,,,,,,<<<<<<<<<<<<<<<<<<<<<<<<<<<<<<<<<<<<<<<<<<<<<<<<<<<<",
",,,,,,,,,,,,<<<<<<<<<<<<<<<<<<<<<<<<<<<<<<<<<<<<<<<<<<<<<<<<<<<<",
",,,,,,,,,,,,<<<<<<<<<<<<<<<<<<<<<<<<<<<<<<<<<<<<<<<<<<<<<<<<<<<<",
",,,,,,,,,,,,<<<<<<<<<<<<<<<<<<<<<<<<<<<<<<<<<<<<<<<<<<<<<<<<<<<<"
};