/* XPM */
static char *wall[] = {
/* columns rows colors chars-per-pixel */
"64 64 18 1 ",
"  c #313121",
". c #394129",
"X c #495929",
"o c #514931",
"O c #597139",
"+ c #596951",
"@ c #816941",
"# c #917949",
"$ c #717189",
"% c #8F87A7",
"& c #97C7A7",
"* c #C7D7EF",
"= c #DEEEF6",
"- c #E0E8F8",
"; c #E8F0F8",
": c #F6F6F6",
"> c #F0F8F8",
", c #F8F8F8",
/* pixels */
",,,,,,,,>>>>>>>>,,,,,,,,>>>>>>XXXXX>;;;;----;;;;>>>>,,,,,,,,,,,,",
",,,,,,,,>>>>>>>>,,,,,,,,>>>XXX=====XXX;;----;;;;>>>>,,,,,,,,,,,,",
",,,,,,,,>>>>>>>>,,,,,,,,>>X====:::====X;----;;;;>>>>,,,,,,,,,,,,",
",,,,,,,,>>>>>>>>,,,,,,,,>>X====:::====X;----;;;;>>>>,,,,,,,,,,,,",
",,,,,,,,,,,,,,,,,,,,,,,XXX&=:::::::::=&XXX,,,,,,,,,,,,,,>>>>>>>>",
",,,,,,,,,,,,,,,,,,,,,,X====:::::::::::====X,,,,,,,,,,,,,>>>>>>>>",
",,,,,,,,,,,,,,,,,,,,XX=====:::::::::::=====XX,,,,,,,,,,,>>>>>>>>",
",,,,,,,,,,,,,,,,,,,,XX=====:::::::::::=====XX,,,,,,,,,,,>>>>>>>>",
">>>>,,,,,,,,,,,,>>XXXX====:::::::::::::====XXXX,,,,,>>>>>>>>>>>>",
">>>>,,,,,,,,,,,,XX&*XX&===:::::::::::::===&XX*&XX,,,>>>>>>>>>>>>",
">>>>,,,,,,,,,,,,XX&*XX&===:::::::::::::===&XX*&XX,,,>>>>>>>>>>>>",
">>>>,,,,,,,,,,,X&&*+&&====:::::::::::::====&&+*&&X,,>>>>>>>>>>>>",
">>>>,,,,,,,,,,,X&&*+=======:::::::::::=======+*&&X,,,,,,>>>>>>>>",
">>>>,,,,,,,,...X&&*+=======:::::::::::=======+*&&X...,,,>>>>>>>>",
">>>>,,,,,,,,...X&&*+=======:::::::::::=======+*&&X...,,,>>>>>>>>",
">>>>,,,,,...OOX&****==&=====:::::::::=====&==****&XOO...>>>>>>>>",
",,,,,,,,.OOOXX&*******=========:::=========*******&XXOOO.,,,,,,,",
",,,,,,,,.OOOXX&*******=====================*******&XXOOO.,,,,,,,",
",,,,,,,,.OOOXX&*******=====================*******&XXOOO.,,,,,,,",
",,,,,,,.OXXOOO&*******=====================*******&OOOXXO.,,,,,,",
",,,,,,,.OOOOOO*********====&=========&====*********OOOOOO.>>>>>>",
",,,,,,,.OOOO**************&===========&**************OOOO.>>>>>>",
",,,,,,,.OOOO**************&===========&**************OOOO.>>>>>>",
",,,,,,,.XOOO***************===========***************OOOX.>>>>>>",
",,,,>>>>.XXO******************=====******************OXX.,,,,,,,",
",,,,>>>>.OOOOO*&*********************************&*OOOOO.,,,,,,,",
",,,,>>>>.OOOOO*&*********************************&*OOOOO.,,,,,,,",
",,,,>>>.OOOOOOO***********************************OOOOOOO.,,,,,,",
">>>>,,,.OOOOOOO***********************************OOOOOOO.,,,,,,",
">>>>,  OOOOOOOOO***&*************************&***OOOOOOOOO  ,,,,",
">>>>,  OOOOOOOOO***&*************************&***OOOOOOOOO  ,,,,",
">>>>,  OOOOOOOOOOOO*********&&*****&&*********OOOOOOOOOOOO  ,,,,",
",,,,,  OOOOOOOOOOOO***********&***&***********OOOOOOOOOOOO  ,,,,",
",,,,,  OOOOOOOOOOOO***********&***&***********OOOOOOOOOOOO  ,,,,",
",,,,,  XOOOOOOOOOOO***********&OOO&***********OOOOOOOOOOOX  ,,,,",
",,,,,  X.OOOOOOOOOOO***&******OOOOO******&***OOOOOOOOOOO.X  ,,,,",
",,,,,,, XXXXOOXOOOOOOOOO****OOOOOOOOO****OOOOOOOOOXOOXXXX ,,,,,,",
",,,,,,, XXXXOOXOOOOOOOOO****OOOOOOOOO****OOOOOOOOOXOOXXXX ,,,,,,",
",,,,,,, XXXX..OOOOOOOOOOOOOOOOOOOOOOOOOOOOOOOOOOOOO..XXXX ,,,,,,",
",,,,,,,, XXX..OOOOOOOOOXOOOOOOOOOOOOOOOOOXOOOOOOOOO..XXX ,,,,,,,",
",,,,>>>>>   XXXOOOOOOOOXOOOOOOOOOOOOOOOOOXOOOOOOOOXXX   ,,,,,,,,",
",,,,>>>>>   XXXOOOOOOOOXOOOOOOOOOOOOOOOOOXOOOOOOOOXXX   ,,,,,,,,",
",,,,>>>>>>> XXXXOOOOOOOOXXOOOOOOOOOOOOOXXOOOOOOOOXXXX ,,,,,,,,,,",
",,,,>>>>>>> XX.XXXXOOOOXXXXXOOOOOOOOOXXXXXOOOOXXXX.XX ,,,,,,,,,,",
">>>>>>>>;;;;  XXXXX.XXXXXXXXXXOOOOOXXXXXXXXXX.XXXXX  ,,,,,,,,,,,",
">>>>>>>>;;;;  XXXXX.XXXXXXXXXXOOOOOXXXXXXXXXX.XXXXX  ,,,,,,,,,,,",
">>>>>>>>;;;;;; XXX.XXXXXXXXXXXXXXXXXXXXXXXXXXX.XXX ,,,,,,,,,,,,,",
">>>>>>>>;;;;;;%    XXXXX..XXXXXXXXXXXXX..XXXXX    %,,,,,,,,,,,,,",
",,,,,,,,,,,,,,%%%%$     XXXXXXXXXXXXXXXXX     $%%%%>,,,,,,,,,,,,",
",,,,,,,,,,,,,,%%%%$     XXXXXXXXXXXXXXXXX     $%%%%>,,,,,,,,,,,,",
",,,,,,,,,,,,,,%%%%$ @@@@  XX..XXXXX..XX  @@@@ $%%%%>,,,,,,,,,,,,",
",,,,,,,,,,,,,,%%%%$ @@@o##    XXXXX    ##o@@@ $%%%%>,,,,,,,,,,,,",
",,,,,,,,>>>>>>>%%%%$    @@####     ####@@    $%%%%>>,,,,,,,,,,,,",
",,,,,,,,>>>>>>>%%%%$    @@####     ####@@    $%%%%>>,,,,,,,,,,,,",
",,,,,,,,>>>>>>>%%%%$$$$ @@@@@@@@@@@@@@@@@ $$$$%%%%>>,,,,,,,,,,,,",
",,,,,,,,>>>>>>>%%%%%$$$$  @@@@@ooo@@@@@  $$$$%%%%%>>,,,,,,,,,,,,",
">>>>,,,,,,,,,,,%%%%%$$$$  @@@@@ooo@@@@@  $$$$%%%%%,,>>>>>>>>>>>>",
">>>>,,,,,,,,,,,,%%%%%%$$  o@oo     oo@o  $$%%%%%%,,,>>>>>>>>>>>>",
">>>>,,,,,,,,,,,,>>%%%%%%$$    $$$$$    $$%%%%%%,,,,,>>>>>>>>>>>>",
">>>>,,,,,,,,,,,,>>>%%%%%%%%$$$$$$$$$$$%%%%%%%%,,,,,,>>>>>>>>>>>>",
">>>>>>>>>>>>,,,,,,,%%%%%%%%$$$$$$$$$$$%%%%%%%%,,,,,,,,,,,,,,,,,,",
">>>>>>>>>>>>,,,,,,,,%%%%%%%%%%%%%%%%%%%%%%%%%,,,,,,,,,,,,,,,,,,,",
">>>>>>>>>>>>,,,,,,,,,,,%%%%%%%%%%%%%%%%%%%,,,,,,,,,,,,,,,,,,,,,,",
">>>>>>>>>>>>,,,,,,,,,,,,,,,,,,,,,,,,,,,,,,,,,,,,,,,,,,,,,,,,,,,,"
};